<?xml version="1.0" encoding="utf-8"?>
<!-- Generator: Adobe Illustrator 16.0.0, SVG Export Plug-In . SVG Version: 6.00 Build 0)  -->
<!DOCTYPE svg PUBLIC "-//W3C//DTD SVG 1.1//EN" "http://www.w3.org/Graphics/SVG/1.1/DTD/svg11.dtd">
<svg version="1.1"
	 id="Layer_1" xmlns:dc="http://purl.org/dc/elements/1.1/" xmlns:cc="http://creativecommons.org/ns#" xmlns:rdf="http://www.w3.org/1999/02/22-rdf-syntax-ns#" xmlns:svg="http://www.w3.org/2000/svg" xmlns:sodipodi="http://sodipodi.sourceforge.net/DTD/sodipodi-0.dtd" xmlns:inkscape="http://www.inkscape.org/namespaces/inkscape" sodipodi:docname="js5.svg" inkscape:version="0.91 r13725"
	 xmlns="http://www.w3.org/2000/svg" xmlns:xlink="http://www.w3.org/1999/xlink" x="0px" y="0px" width="369.824px"
	 height="411.286px" viewBox="67.5 100.714 369.824 411.286" enable-background="new 67.5 100.714 369.824 411.286"
	 xml:space="preserve">
<sodipodi:namedview  inkscape:cy="225" inkscape:cx="162.5" inkscape:zoom="0.52444444" showgrid="false" guidetolerance="10" gridtolerance="10" objecttolerance="10" bordercolor="#666666" pagecolor="#ffffff" borderopacity="1" id="namedview29" inkscape:current-layer="Layer_1" inkscape:window-maximized="1" inkscape:window-y="-8" inkscape:window-x="-8" inkscape:pageopacity="0" inkscape:window-height="705" inkscape:window-width="1366" inkscape:pageshadow="2">
	</sodipodi:namedview>
<g id="g3" transform="matrix(1.2191928,0,0,1.2191928,57.88117,-18.31838)">
	<polygon id="polygon5" fill="#EFC725" points="162.318,434.975 40.845,401.254 13.775,97.632 311.225,97.632 284.127,401.205 	"/>
	<polygon id="polygon7" fill="#FBDE34" points="260.678,381.5 283.836,122.083 162.25,122.083 162.25,408.787 	"/>
	<polygon id="polygon9" fill="#EBEBEB" points="162.193,331.426 162.031,331.473 120.559,320.271 117.906,290.576 97.756,290.576 
		80.527,290.576 85.744,349.043 162.021,370.219 162.193,370.17 	"/>
	<polygon id="polygon11" fill="#EBEBEB" points="80.651,271.936 90.686,271.936 167.209,271.936 167.209,234.7 121.355,234.7 
		126.732,176.258 167.312,175.177 167.209,136.454 93.065,136.454 90.311,163.903 81.559,261.939 	"/>
	<polygon id="polygon13" fill="#FFFFFF" points="166.957,175.229 167.12,175.183 207.791,177.632 211.242,216.079 231.393,216.079 
		248.623,216.079 242.109,144.133 167.129,136.437 166.957,136.485 	"/>
	<polyline id="polyline15" fill="#FFFFFF" points="244.784,175.343 241.593,136.454 162.99,136.454 162.99,160.606 162.99,175.246 
		162.99,175.343 244.784,175.343 	"/>
	<polygon id="polygon17" fill="#FFFFFF" points="248.623,234.718 238.588,234.718 162.064,234.718 162.064,271.954 207.918,271.954 
		203.596,320.247 162.064,331.459 162.064,370.201 238.404,349.043 238.963,342.752 247.715,244.717 	"/>
	<path id="path19" inkscape:connector-curvature="0" fill="#FFFFFF" d="M240,173.693"/>
	<path id="path27" inkscape:connector-curvature="0" fill="#FFFFFF" d="M239.51,173.693"/>
</g>
</svg>
